PathFileType	4	(X/Y/Z)	OpenSim_Sub01_CSStiffKnee_Gyro.trc
DataRate	CameraRate	NumFrames	NumMarkers	Units	OrigDataRate	OrigDataStartFrame	OrigNumFrames
100	100	26	8	m	100	4709	5381
Frame#	Time	torso_imu_offset_imu	pelvis_imu_offset_imu	tibia_r_imu_offset_imu	femur_r_imu_offset_imu	tibia_l_imu_offset_imu	femur_l_imu_offset_imu	toes_r_imu_offset_imu	toes_l_imu_offset_imu
				X1	Y1	Z1	X2	Y2	Z2	X3	Y3	Z3	X4	Y4	Z4	X5	Y5	Z5	X6	Y6	Z6	X7	Y7	Z7	X8		Y8	Z8	

4709	47.08000000	0.55498780	-0.06304905	0.20164948	0.02681915	0.12899864	-0.14817183	-0.07125000	-0.22605952	-0.49957277	0.38038824	0.06850066	-0.83086492	-0.69294911	0.07295699	-2.41433409	-0.27779386	0.58939130	-1.43806115	0.01947473	0.00926014	-0.13649017	-0.21421434	1.99021995	-0.92691332
4710	47.09000000	0.51821432	-0.04080401	0.18153453	-0.02257726	0.07140832	-0.13153120	-0.08664592	-0.22732946	-0.52168896	0.32586223	0.03586688	-0.83422670	-0.50913342	0.04160039	-2.46439549	-0.44568227	0.60509608	-1.34856554	-0.00263564	-0.01906315	-0.13828211	-0.12724723	2.07648369	-0.79630465
4711	47.10000000	0.48283188	-0.01832770	0.16132252	-0.07016374	0.01967276	-0.12111214	-0.09508102	-0.22424020	-0.55495436	0.23829329	-0.01411009	-0.81885677	-0.30096902	0.01686755	-2.50343269	-0.60516815	0.60808207	-1.24819976	-0.01975303	-0.05058192	-0.14711205	-0.05486158	2.11224899	-0.65486964
4712	47.11000000	0.44691430	0.00356033	0.14065171	-0.12118332	-0.02133899	-0.12071470	-0.11405031	-0.21902341	-0.59372915	0.11854694	-0.06207973	-0.77454853	-0.09480240	-0.01746250	-2.51986118	-0.72701135	0.58460384	-1.14151600	-0.03671921	-0.08374074	-0.16172410	0.03784425	2.12436826	-0.51573418
4713	47.12000000	0.40959548	0.02388304	0.11885997	-0.17768155	-0.04849611	-0.13136117	-0.15370010	-0.21269560	-0.63442731	-0.01742652	-0.09559818	-0.70015285	0.08947412	-0.06964412	-2.50806240	-0.79452687	0.53269095	-1.03342071	-0.05652410	-0.11855901	-0.18069787	0.16405297	2.12290346	-0.38944280
4714	47.13000000	0.37243803	0.04128094	0.09462017	-0.23455883	-0.06255847	-0.14783355	-0.20751945	-0.20352742	-0.67816260	-0.12027178	-0.11786394	-0.61475634	0.24660366	-0.12979080	-2.47591159	-0.81909875	0.47669017	-0.92948336	-0.07789972	-0.15859752	-0.20224972	0.28779086	2.07973859	-0.28065896
4715	47.14000000	0.33705963	0.05451923	0.06660075	-0.28646173	-0.06562695	-0.16419604	-0.26630240	-0.18992002	-0.72658378	-0.14182893	-0.13376367	-0.53871689	0.37177598	-0.18588590	-2.43165728	-0.81508544	0.44204915	-0.83469785	-0.09926673	-0.20762749	-0.22464554	0.36969778	1.96815018	-0.19366469
4716	47.15000000	0.30225406	0.06418428	0.03435341	-0.33539721	-0.06821205	-0.17581924	-0.31628774	-0.17545802	-0.78029805	-0.09294144	-0.14376131	-0.47725057	0.44434851	-0.22926221	-2.36855306	-0.78834391	0.42881898	-0.74719003	-0.12177918	-0.26664549	-0.24717000	0.40411753	1.82911970	-0.13701925
4717	47.16000000	0.26515861	0.07193230	-0.00204653	-0.38769639	-0.08574954	-0.17885648	-0.34107591	-0.16676157	-0.83928483	-0.01920279	-0.14572212	-0.42665174	0.43445242	-0.25324953	-2.27104650	-0.73969089	0.42207864	-0.66104789	-0.14818924	-0.33501649	-0.26969876	0.40527401	1.74333451	-0.12175047
4718	47.17000000	0.22488798	0.07845342	-0.04197306	-0.44592010	-0.12612124	-0.17201737	-0.33461001	-0.16574219	-0.90069058	0.04579557	-0.13968329	-0.38547247	0.33627227	-0.25566024	-2.13198919	-0.66461826	0.40892911	-0.57325727	-0.17821569	-0.41320240	-0.28998780	0.38692124	1.74188548	-0.14730692
4719	47.18000000	0.18501682	0.08225148	-0.08358656	-0.50409181	-0.18021205	-0.15969272	-0.31398651	-0.16371765	-0.95535876	0.09624416	-0.13060323	-0.35755966	0.19792820	-0.24425093	-1.96323837	-0.54688209	0.38141479	-0.48738634	-0.20476292	-0.50415985	-0.30104645	0.36119148	1.74405530	-0.18722952
4720	47.19000000	0.14940179	0.08193228	-0.12478496	-0.55547721	-0.23700373	-0.14648667	-0.29809274	-0.15193365	-0.99455313	0.13018393	-0.12366093	-0.34653483	0.07170079	-0.22727209	-1.77791303	-0.37209747	0.33273283	-0.40784528	-0.22064341	-0.61051445	-0.29646461	0.33859822	1.66089845	-0.21480989
4721	47.20000000	0.11858087	0.08020829	-0.16245194	-0.59744405	-0.28957278	-0.13126963	-0.29196260	-0.13568968	-1.02268015	0.14659866	-0.11943841	-0.34629654	-0.02251860	-0.20418244	-1.57561003	-0.16146388	0.26107549	-0.33854206	-0.22723953	-0.72799050	-0.28245614	0.31520895	1.47470369	-0.23695514
4722	47.21000000	0.09113321	0.08220984	-0.19287725	-0.62978868	-0.33342426	-0.10954327	-0.29248062	-0.12854393	-1.05187112	0.14502896	-0.11580301	-0.34502944	-0.08398257	-0.16927829	-1.34796220	0.04282896	0.16762531	-0.28307985	-0.23097029	-0.84825331	-0.27265991	0.27860248	1.20981181	-0.28033201
4723	47.22000000	0.06539188	0.09206560	-0.21328314	-0.65417030	-0.36681561	-0.07970017	-0.30140264	-0.13731129	-1.08826753	0.12513743	-0.11001016	-0.33553133	-0.11983481	-0.12192310	-1.08931557	0.19888299	0.06280914	-0.24324278	-0.23425736	-0.96556448	-0.27604475	0.22339404	0.89695069	-0.35665875
4724	47.23000000	0.03919747	0.11159952	-0.22298965	-0.67633450	-0.39407564	-0.04668040	-0.33158858	-0.15352245	-1.12442326	0.08684289	-0.09802822	-0.32105793	-0.15427406	-0.07293550	-0.80029960	0.26605630	-0.02240583	-0.21676496	-0.23045807	-1.08009558	-0.29094533	0.16014389	0.57988684	-0.44372961
4725	47.24000000	0.01036373	0.14207757	-0.22190991	-0.70214295	-0.41984452	-0.01582933	-0.39496455	-0.16719839	-1.15246420	0.03002348	-0.07675139	-0.30570883	-0.21066003	-0.03385507	-0.48494849	0.21148827	-0.05849586	-0.20023542	-0.21300561	-1.19259843	-0.31391723	0.10119917	0.30051714	-0.51629735
4726	47.25000000	-0.02288461	0.18222474	-0.21314964	-0.73294706	-0.44349659	0.01246937	-0.47830550	-0.17412437	-1.17907766	-0.04622105	-0.05442974	-0.28768727	-0.27986743	-0.00766341	-0.17366819	0.08089445	-0.05953039	-0.18407886	-0.18877799	-1.30155952	-0.33800362	0.05508174	0.06322401	-0.56510177
4727	47.26000000	-0.06207110	0.22926373	-0.20169942	-0.76743722	-0.46130700	0.04075601	-0.55360404	-0.17348760	-1.21950443	-0.14321330	-0.04595937	-0.26172980	-0.33370633	0.00772025	0.08774590	-0.03387886	-0.06523397	-0.15509344	-0.17255758	-1.40413408	-0.35419148	0.02804181	-0.14985732	-0.59026038
4728	47.27000000	-0.10675034	0.27971155	-0.19287084	-0.80421070	-0.47107894	0.07094373	-0.60442470	-0.16479735	-1.28124929	-0.25447814	-0.05501975	-0.22504277	-0.36488808	0.01732825	0.28901310	-0.08809251	-0.10241234	-0.10216777	-0.17342863	-1.49855365	-0.35681638	0.02314057	-0.38140833	-0.58060221
4729	47.28000000	-0.15209090	0.32855394	-0.19263750	-0.84173382	-0.47411449	0.10346192	-0.64057833	-0.14818337	-1.35430920	-0.35612943	-0.06007146	-0.18044318	-0.41331027	0.03263258	0.49953944	-0.14344632	-0.16830601	-0.01895938	-0.18753348	-1.58548972	-0.34774487	0.03638916	-0.72884165	-0.49949817
4730	47.29000000	-0.19294735	0.37079354	-0.20629981	-0.87862163	-0.47097629	0.13806823	-0.67474662	-0.12377547	-1.42730156	-0.42414221	-0.03836617	-0.13176364	-0.51916490	0.06172110	0.78659118	-0.26932321	-0.25512361	0.09841594	-0.20959004	-1.66668544	-0.32977872	0.05836080	-1.27736833	-0.31223885
4731	47.30000000	-0.22705943	0.40374614	-0.23128435	-0.91520766	-0.44970590	0.16965807	-0.71258592	-0.09083728	-1.49905750	-0.45737884	0.01009754	-0.08548366	-0.65977136	0.06874950	1.08403385	-0.46574387	-0.34442473	0.23512582	-0.23768942	-1.75153927	-0.30485506	0.03333804	-1.90978373	-0.03949370
4732	47.31000000	-0.25385999	0.42608824	-0.26038049	-0.95280364	-0.39101783	0.19025988	-0.75559252	-0.04813663	-1.57443390	-0.46818058	0.07192559	-0.04959899	-0.77543536	-0.00778889	1.24742302	-0.69175904	-0.41155022	0.36534313	-0.27190003	-1.85397950	-0.27440354	-0.12135092	-2.38993438	0.26536268
4733	47.32000000	-0.27090063	0.43567587	-0.28799924	-0.98518069	-0.28819389	0.19217403	-0.80191757	0.00234179	-1.65840145	-0.46409990	0.13862224	-0.02251426	-0.82248096	-0.17562217	1.21383189	-0.89528921	-0.44523299	0.47307400	-0.30963189	-1.99088979	-0.24040451	-0.41353384	-2.57882853	0.54120041
4734	47.33000000	-0.27148662	0.42849502	-0.31230368	-0.98925664	-0.16276820	0.16839029	-0.84236821	0.05142132	-1.75601114	-0.44161549	0.21300759	0.01880990	-0.79404084	-0.32174393	1.10447977	-1.00060201	-0.46426672	0.56458226	-0.34230644	-2.18561726	-0.20608181	-0.68326405	-2.55769864	0.71052869
